<mxfile host="65bd71144e">
    <diagram id="H30u863SktXne3JqCfYX" name="Page-1">
        <mxGraphModel dx="1310" dy="830" grid="1" gridSize="10" guides="1" tooltips="1" connect="1" arrows="1" fold="1" page="1" pageScale="1" pageWidth="850" pageHeight="1100" math="0" shadow="0">
            <root>
                <mxCell id="0"/>
                <mxCell id="1" parent="0"/>
                <mxCell id="2" value="架构分层" style="swimlane;childLayout=stackLayout;resizeParent=1;resizeParentMax=0;horizontal=1;startSize=20;horizontalStack=0;" parent="1" vertex="1">
                    <mxGeometry width="850" height="960" as="geometry"/>
                </mxCell>
                <mxCell id="3" value="展示层" style="swimlane;startSize=20;horizontal=0;" parent="2" vertex="1">
                    <mxGeometry y="20" width="850" height="250" as="geometry"/>
                </mxCell>
                <mxCell id="12" value="网页架构" style="swimlane;startSize=20;horizontal=1;childLayout=treeLayout;horizontalTree=0;resizable=0;containerType=tree;swimlaneLine=1;" parent="3" vertex="1">
                    <mxGeometry x="205" y="30" width="440" height="190" as="geometry"/>
                </mxCell>
                <mxCell id="13" value="主网页" style="whiteSpace=wrap;html=1;" parent="12" vertex="1">
                    <mxGeometry x="170" y="40" width="100" height="40" as="geometry"/>
                </mxCell>
                <mxCell id="14" value="嵌套子网页1" style="whiteSpace=wrap;html=1;" parent="12" vertex="1">
                    <mxGeometry x="20" y="130" width="180" height="40" as="geometry"/>
                </mxCell>
                <mxCell id="15" value="" style="edgeStyle=elbowEdgeStyle;elbow=vertical;html=1;rounded=0;" parent="12" source="13" target="14" edge="1">
                    <mxGeometry relative="1" as="geometry"/>
                </mxCell>
                <mxCell id="16" value="嵌套子网页N" style="whiteSpace=wrap;html=1;" parent="12" vertex="1">
                    <mxGeometry x="240" y="130" width="180" height="40" as="geometry"/>
                </mxCell>
                <mxCell id="17" value="" style="edgeStyle=elbowEdgeStyle;elbow=vertical;html=1;rounded=0;" parent="12" source="13" target="16" edge="1">
                    <mxGeometry relative="1" as="geometry"/>
                </mxCell>
                <mxCell id="20" value="" style="shape=waypoint;sketch=0;fillStyle=solid;size=6;pointerEvents=1;points=[];fillColor=none;resizable=0;rotatable=0;perimeter=centerPerimeter;snapToPoint=1;" parent="12" vertex="1">
                    <mxGeometry x="200" y="130" width="40" height="40" as="geometry"/>
                </mxCell>
                <mxCell id="27" value="" style="shape=waypoint;sketch=0;fillStyle=solid;size=6;pointerEvents=1;points=[];fillColor=none;resizable=0;rotatable=0;perimeter=centerPerimeter;snapToPoint=1;" parent="12" vertex="1">
                    <mxGeometry x="210" y="130" width="40" height="40" as="geometry"/>
                </mxCell>
                <mxCell id="28" value="" style="shape=waypoint;sketch=0;fillStyle=solid;size=6;pointerEvents=1;points=[];fillColor=none;resizable=0;rotatable=0;perimeter=centerPerimeter;snapToPoint=1;" parent="12" vertex="1">
                    <mxGeometry x="190" y="130" width="40" height="40" as="geometry"/>
                </mxCell>
                <mxCell id="4" value="接口层/缓存层" style="swimlane;startSize=20;horizontal=0;" parent="2" vertex="1">
                    <mxGeometry y="270" width="850" height="190" as="geometry"/>
                </mxCell>
                <mxCell id="39" style="edgeStyle=none;html=1;exitX=0;exitY=0.5;exitDx=0;exitDy=0;entryX=0.745;entryY=0.453;entryDx=0;entryDy=0;entryPerimeter=0;" parent="4" source="29" target="35" edge="1">
                    <mxGeometry relative="1" as="geometry">
                        <mxPoint x="450" y="85" as="targetPoint"/>
                    </mxGeometry>
                </mxCell>
                <mxCell id="29" value="缓存数据库" style="shape=datastore;whiteSpace=wrap;html=1;" parent="4" vertex="1">
                    <mxGeometry x="580" y="40" width="70" height="90" as="geometry"/>
                </mxCell>
                <mxCell id="38" style="edgeStyle=none;html=1;exitX=0;exitY=0;exitDx=70;exitDy=40;exitPerimeter=0;entryX=0.003;entryY=0.442;entryDx=0;entryDy=0;entryPerimeter=0;" parent="4" source="35" target="29" edge="1">
                    <mxGeometry relative="1" as="geometry">
                        <mxPoint x="570" y="80" as="targetPoint"/>
                    </mxGeometry>
                </mxCell>
                <mxCell id="35" value="API Gateway" style="verticalLabelPosition=bottom;verticalAlign=top;html=1;shape=mxgraph.basic.pyramid;dx1=0.4;dx2=0.6;dy1=0.9;dy2=0.8;" parent="4" vertex="1">
                    <mxGeometry x="375" y="40" width="100" height="100" as="geometry"/>
                </mxCell>
                <mxCell id="36" value="1. 请求的过滤与分发&lt;br&gt;2. 信息安全&amp;amp;鉴权" style="whiteSpace=wrap;html=1;shape=mxgraph.basic.roundRectCallout;dx=5.4;dy=9;size=5;boundedLbl=1;flipH=1;align=left;spacingLeft=30;" parent="4" vertex="1">
                    <mxGeometry x="190" y="30" width="185" height="60" as="geometry"/>
                </mxCell>
                <mxCell id="5" value="业务服务层/数据引擎层" style="swimlane;startSize=20;horizontal=0;" parent="2" vertex="1">
                    <mxGeometry y="460" width="850" height="220" as="geometry"/>
                </mxCell>
                <mxCell id="30" value="核心数据引擎" style="whiteSpace=wrap;html=1;shape=mxgraph.basic.isocube;isoAngle=15;" parent="5" vertex="1">
                    <mxGeometry x="160" y="50" width="120" height="120" as="geometry"/>
                </mxCell>
                <mxCell id="31" value="业务服务1" style="verticalLabelPosition=middle;verticalAlign=middle;html=1;shape=mxgraph.basic.rect;fillColor2=none;strokeWidth=1;size=20;indent=0;labelPosition=center;align=center;" parent="5" vertex="1">
                    <mxGeometry x="340" y="80" width="120" height="60" as="geometry"/>
                </mxCell>
                <mxCell id="64" value="业务服务N" style="verticalLabelPosition=middle;verticalAlign=middle;html=1;shape=mxgraph.basic.rect;fillColor2=none;strokeWidth=1;size=20;indent=5;labelPosition=center;align=center;" parent="5" vertex="1">
                    <mxGeometry x="580" y="80" width="120" height="60" as="geometry"/>
                </mxCell>
                <mxCell id="65" value="" style="shape=waypoint;sketch=0;fillStyle=solid;size=6;pointerEvents=1;points=[];fillColor=none;resizable=0;rotatable=0;perimeter=centerPerimeter;snapToPoint=1;" parent="5" vertex="1">
                    <mxGeometry x="480" y="90" width="40" height="40" as="geometry"/>
                </mxCell>
                <mxCell id="66" value="" style="shape=waypoint;sketch=0;fillStyle=solid;size=6;pointerEvents=1;points=[];fillColor=none;resizable=0;rotatable=0;perimeter=centerPerimeter;snapToPoint=1;" parent="5" vertex="1">
                    <mxGeometry x="500" y="90" width="40" height="40" as="geometry"/>
                </mxCell>
                <mxCell id="67" value="" style="shape=waypoint;sketch=0;fillStyle=solid;size=6;pointerEvents=1;points=[];fillColor=none;resizable=0;rotatable=0;perimeter=centerPerimeter;snapToPoint=1;" parent="5" vertex="1">
                    <mxGeometry x="520" y="90" width="40" height="40" as="geometry"/>
                </mxCell>
                <mxCell id="32" value="数据层/持久层" style="swimlane;startSize=20;horizontal=0;" parent="2" vertex="1">
                    <mxGeometry y="680" width="850" height="280" as="geometry"/>
                </mxCell>
                <mxCell id="86" style="edgeStyle=orthogonalEdgeStyle;html=1;exitX=0.5;exitY=1;exitDx=0;exitDy=0;entryX=0.5;entryY=0;entryDx=0;entryDy=0;endArrow=none;endFill=0;" edge="1" parent="32" source="70" target="80">
                    <mxGeometry relative="1" as="geometry"/>
                </mxCell>
                <mxCell id="87" style="edgeStyle=orthogonalEdgeStyle;html=1;exitX=0.5;exitY=1;exitDx=0;exitDy=0;entryX=0.5;entryY=0;entryDx=0;entryDy=0;endArrow=none;endFill=0;" edge="1" parent="32" source="70" target="79">
                    <mxGeometry relative="1" as="geometry"/>
                </mxCell>
                <mxCell id="88" style="edgeStyle=orthogonalEdgeStyle;html=1;exitX=0.5;exitY=1;exitDx=0;exitDy=0;entryX=0.5;entryY=0;entryDx=0;entryDy=0;endArrow=none;endFill=0;" edge="1" parent="32" source="70" target="72">
                    <mxGeometry relative="1" as="geometry"/>
                </mxCell>
                <mxCell id="89" style="edgeStyle=orthogonalEdgeStyle;html=1;exitX=0.5;exitY=1;exitDx=0;exitDy=0;entryX=0.5;entryY=0;entryDx=0;entryDy=0;endArrow=none;endFill=0;" edge="1" parent="32" source="70" target="73">
                    <mxGeometry relative="1" as="geometry"/>
                </mxCell>
                <mxCell id="70" value="非结构化数据库" style="shape=datastore;whiteSpace=wrap;html=1;" vertex="1" parent="32">
                    <mxGeometry x="353" y="30" width="70" height="90" as="geometry"/>
                </mxCell>
                <mxCell id="73" value="时序数据库" style="shape=datastore;whiteSpace=wrap;html=1;" vertex="1" parent="32">
                    <mxGeometry x="488" y="160" width="70" height="90" as="geometry"/>
                </mxCell>
                <mxCell id="72" value="文档数据库" style="shape=datastore;whiteSpace=wrap;html=1;" vertex="1" parent="32">
                    <mxGeometry x="398" y="160" width="70" height="90" as="geometry"/>
                </mxCell>
                <mxCell id="71" value="结构化数据库" style="shape=datastore;whiteSpace=wrap;html=1;" vertex="1" parent="32">
                    <mxGeometry x="553" y="30" width="70" height="90" as="geometry"/>
                </mxCell>
                <mxCell id="74" value="" style="shape=waypoint;sketch=0;fillStyle=solid;size=6;pointerEvents=1;points=[];fillColor=none;resizable=0;rotatable=0;perimeter=centerPerimeter;snapToPoint=1;" vertex="1" parent="32">
                    <mxGeometry x="448" y="50" width="40" height="40" as="geometry"/>
                </mxCell>
                <mxCell id="75" value="" style="shape=waypoint;sketch=0;fillStyle=solid;size=6;pointerEvents=1;points=[];fillColor=none;resizable=0;rotatable=0;perimeter=centerPerimeter;snapToPoint=1;" vertex="1" parent="32">
                    <mxGeometry x="468" y="50" width="40" height="40" as="geometry"/>
                </mxCell>
                <mxCell id="76" value="" style="shape=waypoint;sketch=0;fillStyle=solid;size=6;pointerEvents=1;points=[];fillColor=none;resizable=0;rotatable=0;perimeter=centerPerimeter;snapToPoint=1;" vertex="1" parent="32">
                    <mxGeometry x="488" y="50" width="40" height="40" as="geometry"/>
                </mxCell>
                <mxCell id="79" value="图数据库" style="shape=datastore;whiteSpace=wrap;html=1;" vertex="1" parent="32">
                    <mxGeometry x="308" y="160" width="70" height="90" as="geometry"/>
                </mxCell>
                <mxCell id="80" value="键值数据库" style="shape=datastore;whiteSpace=wrap;html=1;" vertex="1" parent="32">
                    <mxGeometry x="218" y="160" width="70" height="90" as="geometry"/>
                </mxCell>
                <mxCell id="81" value="1. 业务数据&lt;br&gt;2. 服务数据" style="whiteSpace=wrap;html=1;shape=mxgraph.basic.roundRectCallout;dx=5.4;dy=9;size=5;boundedLbl=1;flipH=0;align=left;spacingLeft=30;" vertex="1" parent="32">
                    <mxGeometry x="643" y="40" width="130" height="60" as="geometry"/>
                </mxCell>
                <mxCell id="82" value="各类型文件" style="shape=cube;whiteSpace=wrap;html=1;boundedLbl=1;backgroundOutline=1;darkOpacity=0.05;darkOpacity2=0.1;" vertex="1" parent="32">
                    <mxGeometry x="78" y="30" width="120" height="80" as="geometry"/>
                </mxCell>
                <mxCell id="83" value="" style="shape=waypoint;sketch=0;fillStyle=solid;size=6;pointerEvents=1;points=[];fillColor=none;resizable=0;rotatable=0;perimeter=centerPerimeter;snapToPoint=1;" vertex="1" parent="32">
                    <mxGeometry x="228" y="50" width="40" height="40" as="geometry"/>
                </mxCell>
                <mxCell id="84" value="" style="shape=waypoint;sketch=0;fillStyle=solid;size=6;pointerEvents=1;points=[];fillColor=none;resizable=0;rotatable=0;perimeter=centerPerimeter;snapToPoint=1;" vertex="1" parent="32">
                    <mxGeometry x="248" y="50" width="40" height="40" as="geometry"/>
                </mxCell>
                <mxCell id="85" value="" style="shape=waypoint;sketch=0;fillStyle=solid;size=6;pointerEvents=1;points=[];fillColor=none;resizable=0;rotatable=0;perimeter=centerPerimeter;snapToPoint=1;" vertex="1" parent="32">
                    <mxGeometry x="268" y="50" width="40" height="40" as="geometry"/>
                </mxCell>
            </root>
        </mxGraphModel>
    </diagram>
</mxfile>